P1
64 64
1111111111111111100000000000000000000000000000001111111111111111111111
1111111111100000000000000000000000000000001111111111111111111111111111
1111100000000000000000000000000000001111111111111111111111111111111110
0000000000000000000000000000001111111111111111111111111111111111111000
0000000000000000000011111111111111111111111111111111111111111100000000
0000000000000111111111111111111111111111111111111111111110000000000000
0000001111111111111111111111111111111111111111111111000000000000000001
1111111111111111111111111111111111111111111111100000000000000011111111
1111111111111111111111111111111111111111100000000000000011111111111111
1111111111111111111111111111111111100000000000000011111111111111111111
1111111111111111111111111111100000000000000011111111111111111111111111
1111111111111111111111100000000000000011111111111111111111111111111111
1111111111111111100000000000000011111111111111111111111111111111111111
1111111111100000000000000011111111111111111111111111111111111111111111
1111100000000000000011111111111111111111111111111111111111111111111110
0000000000000011111111111111111111111100001111111111111111111110000000
0000000011111111111111111111100000001111111111111111111110000000000000
0011111111111111111111100000001111111111111111111110000000000000001111
1111111111111111100000001111111111111111111110000000000000001111111111
1111111111100000000111111111111111111110000000000000001111111111111111
1111000000000011111111111111111110000000000000001111111111111111111000
0000000001111111111111111111000000000000011111111111111111110000000000
0000111111111111111111100000000000111111111111111111100000000000000000
0000000000000111100000000000111100000000000000000000000000000000000000
0000000011100000000000111000000000000000000000000000000000000000000000
0000000000000000000000000000000000000000000000000000000000000000000000
0000000000000000000000000000000000000000000000000000000000000000000000
0000000000000000000000000000000000000000000000000000000000000000000000
0000000000000000000000000000000000000000000000000000000000000000000000
0000000000000000000000000000000000000000000000000000000000000000000000
0000000000000000000000000000000000000000000000000000000000000000000000
0000000000000000000000000000000000000000000000000000000000000000000000
0000000000000000000000000000000000000000000000000000000000000000000000
0000000000000000000000000000000000000000000000000000000000000000000000
0000000000000000000000000000000000000000000000000000000000000000000000
0000001110000000000011100000000000000000000000000000000000000000000001
1110000000000011110000000000000000000000000000001111111111111111111000
0000000011111111111111111110000000000000011111111111111111110000000000
0001111111111111111111000000000000111111111111111111100000000000000011
1111111111111111100000000001111111111111111111100000000000000011111111
1111111111110000000011111111111111111111100000000000000011111111111111
1111111000000011111111111111111111100000000000000011111111111111111111
1000000011111111111111111111100000000000000011111111111111111111100000
0011111111111111111111100000000000000011111111111111111111100011111111
1111111111111111100000000000000011111111111111111111111111111111111111
1111111111100000000000000011111111111111111111111111111111111111111111
1111100000000000000011111111111111111111111111111111111111111111111110
0000000000000011111111111111111111111111111111111111111111111110000000
0000000011111111111111111111111111111111111111111111111110000000000000
0011111111111111111111111111111111111111111111111110000000000000001111
1111111111111111111111111111111111111111111110000000000000001111111111
1111111111111111111111111111111111111110000000000000001111111111111111
1111111111111111111111111111111100000000000000000111111111111111111111
1111111111111111111111111000000000000000000011111111111111111111111111
1111111111111111110000000000000000000001111111111111111111111111111111
1111111111100000000000000000000000111111111111111111111111111111111111
0000000000000000000000000000000011111111111111111111111111111111000000
0000000000000000000000000011111111111111111111111111111111000000000000
000000000000000000001111111111111111
