P1
64 64
0000000000000000000000000000000000000000000000000000000000000000000000
0000000000000000000000000000000000000000000000000000000000000000000000
0000000000000000000000000000000000000000000000000000000000000000000000
0000000000000000000000000000000000000000000000000011111111111111111111
1111111111111111111111111111111111111000000010000000000000000000100000
0000000000000000001000100000001000000010000000000000000000100000000000
0000000000001000100000001000000010000000000000000000100000000000000000
0000001000100000001000000010001111111111111000100011111111111110001111
1000100010001000000010001000000000000000100000000000000000001000100010
0010001000000010001000000000000000100000000000000000001000100010001000
1000000010001000000000000000100000000000000000001000100010001000100000
0010001000111111111000100011111111100010001000100010001000100000001000
1000000000000000100000000000100010001000100000001000100000001000100000
0000000000100000000000100010001000100000001000100000001000100000000000
0000100000000000100010001000100000001000100000001000111111111111100010
0011111111100010001000111111111000100000001000000000000000100010000000
0000000000000000000010000000100000001000000000000000100010000000000000
0000000000000010000000100000001000000000000000100010000000000000000000
0000000010000000100000001111111111111000100011111111111110001000111110
0010001111100000000000000000000000100000000000000000001000000000000000
1000000000000000000000000000100000000000000000001000000000000000100000
0000000000000000000000100000000000000000001000000000000000100000000000
1111111111111000111111111111111110001000111111111000100010000000100000
0000000000000000000000000000001000000000001000100010000000100000000000
0000000000000000000000001000000000001000100010000000100000000000000000
0000000000000000001000000000001000100010000000100011111111111111111111
1111111111111000111110001000100010000000000000000000000000000000000000
0000001000000010001000000000000000000000000000000000000000000000000000
1000000010001000000000000000000000000000000000000000000000000000100000
0010001000000000000000111111111111100011111111111111111000111111111000
1000111110000000000000000000000010000000100000000000100000001000100010
0000000000000000000000000010000000100000000000100000001000100010000000
0000000000000000000010000000100000000000100000001000100010000000111111
1100001111100010001000111111111000100000001000100010001000000010000000
0000000010001000000000001000000000000000000010001000000010000000000000
0010001000000000001000000000000000000010001000000010000000000000001000
1000000000001000000000000000000010001000000010001111111111111000100011
1110001000111110001000111110001000000010000000000000001000100000001000
1000000010001000000000001000000010000000000000001000100000001000100000
0010001000000000001000000010000000000000001000100000001000100000001000
1000000000001000000010001000111110001000111111111000100010001000100011
1111111000000010001000000010001000000000000000100010000000100000000000
1000000010001000000010001000000000000000100010000000100000000000100000
0010001000000010001000000000000000100010000000100000000000100000001000
1111111111111111100010001111100011111000100010001000100000001000100000
0000000000000010000000000000000000100010001000100000001000100000000000
0000000010000000000000000000100010001000100000001000100000000000000000
0010000000000000000000100010001000100000001000100011111111100010001000
1111100011111000100010001111100000000000000000000000000010001000000010
0010000000100010000000000000000000000000000000000010001000000010001000
0000100010000000000000000000000000000000000010001000000010001000000010
0010000000000011111111111111111111100010001000100010001000100010001111
1111100000000000100000001000000010000000100000000000100010000000000010
0000000000100000001000000010000000100000000000100010000000000010000000
0000100000001000000010000000100000000000100010000000000010000000100010
0010001000100010001000111111111111100011111111100010000000100000001000
0000100010001000000000000000000000000000100000000000100000001000000010
0010001000000000000000000000000000100000000000100000001000000010001000
100000000000000000000000000010000000
