P1
64 64
1111111111111111111111111000000000000001111111111111111111111111111111
1111111111111111000000000000000000001111111111111111111111111111111111
1111111000000000000000000000000001111111111111111111111111111111111110
0000000000000000000000000000011111111111111111111111111111111000000000
0000000000000000000000000111111111111111111111111111110000000000000000
0000000000000000000011111111111111111111111111000000000000000000000000
0000000000000000111111111111111111111110000000000000000000000000000000
0000000000011111111111111111111100000000000000000011000010000000000000
0000001111111111111111111000000000000000111111000011111100000000000000
0111111111111111110000000000000011111111000011111111000000000000001111
1111111111100000000000001111111111000011111111110000000000000111111111
1111000000000000111111111111000011111111111100000000000011111111111100
0000000001111111111111000011111111111110000000000011111111111000000000
0011111111111111000011111111111111000000000001111111110000000000011111
1111111111000011111111111111100000000000111111110000000000111111111111
1110000001111111111111110000000000111111100000000001111111111111000000
0000001111111111111000000000011111100000000011111111111100000000000000
0011111111111100000000011111000000000011111111110000000000000000000011
1111111100000000001111000000000111111111100000000000000000000001111111
1110000000001111000000000111111111000000000000000000000000111111111000
0000001110000000001111111110000000000000000000000000011111111100000000
0110000000001111111110000000000000000000000000011111111100000000011000
0000011111111100000000000011110000000000001111111110000000010000000001
1111111100000000001111111100000000001111111110000000000000000001111111
1000000000111111111111000000000111111110000000000000000001111111100000
0000111111111111000000000111111110000000000000000011111111100000000111
1111111111100000000111111111000000000000000011111111000000000111111111
1111100000000011111111000000000000000011111111000000001111111111111111
0000000011111111000000000000000011111111000000001111111111111111000000
0011111111000000000000000011111111000000001111111111111111000000001111
1111000000000000000011111111000000001111111111111111000000001111111100
0000000000000011111111000000000111111111111110000000001111111100000000
0000000011111111100000000111111111111110000000011111111100000000000000
0001111111100000000011111111111100000000011111111000000000000000000111
1111100000000011111111111100000000011111111000000000000000000111111111
0000000000111111110000000000111111111000000001100000000111111111000000
0000001111000000000000111111111000000001100000000011111111100000000000
0000000000000001111111110000000001100000000011111111100000000000000000
0000000001111111110000000001110000000001111111110000000000000000000000
0011111111100000000011110000000001111111111000000000000000000000011111
1111100000000011110000000000111111111100000000000000000000111111111100
0000000011111000000000111111111111000000000000000011111111111100000000
0111111000000000011111111111110000000000001111111111111000000000011111
1100000000001111111111111110000001111111111111110000000000111111110000
0000000111111111111111000011111111111111100000000000111111111000000000
0011111111111111000011111111111111000000000001111111111100000000000111
1111111111000011111111111110000000000011111111111100000000000011111111
1111000011111111111100000000000011111111111110000000000000111111111100
0011111111110000000000000111111111111111000000000000001111111100001111
1111000000000000001111111111111111100000000000000011111100001111110000
0000000000011111111111111111110000000000000000010100001100000000000000
0000111111111111111111111000000000000000000000000000000000000000000111
1111111111111111111100000000000000000000000000000000000000001111111111
1111111111111111000000000000000000000000000000000000111111111111111111
1111111111100000000000000000000000000000000001111111111111111111111111
1111111000000000000000000000000000000111111111111111111111111111111111
1110000000000000000000000000011111111111111111111111111111111111111111
0000000000000000000011111111111111111111111111111111111111111111111100
000000000001111111111111111111111111
